# Blender 4.2.2 LTS
# www.blender.org
mtllib traffic_light.mtl
o trafficlight.004
v -1.551836 6.633915 -0.370598
v -1.550108 6.633915 -0.257455
v -1.498253 6.833915 -0.371416
v -1.498253 6.433915 -0.371416
v -1.496525 6.433915 -0.258273
v -1.351859 6.287504 -0.373652
v -1.350132 6.287504 -0.260508
v -1.151883 6.233915 -0.376705
v -1.150155 6.233915 -0.263562
v -0.951906 6.287504 -0.379759
v -0.950178 6.287504 -0.266615
v -0.805513 6.433915 -0.381994
v -0.803785 6.433915 -0.268850
v -0.751929 6.633915 -0.382812
v -0.805513 6.833915 -0.381994
v -0.750202 6.633915 -0.269669
v -0.790264 6.633915 -0.172162
v -0.803785 6.833915 -0.268850
v -0.838282 6.813142 -0.171429
v -0.969470 6.944345 -0.169426
v -0.924522 6.762991 -0.129977
v -1.148676 6.992369 -0.166690
v -1.327882 6.944345 -0.163953
v -1.148063 6.892068 -0.126564
v -1.277124 6.857481 -0.124593
v -1.019002 6.857481 -0.128534
v -1.371604 6.762991 -0.123150
v -1.459070 6.813142 -0.161950
v -1.406186 6.633915 -0.122622
v -1.507088 6.633915 -0.161217
v -1.371604 6.504838 -0.123150
v -1.459070 6.454688 -0.161950
v -1.277124 6.410348 -0.124593
v -1.327882 6.323485 -0.163953
v -1.148063 6.375762 -0.126564
v -1.148676 6.275461 -0.166690
v -1.019002 6.410348 -0.128534
v -0.969470 6.323485 -0.169426
v -0.924522 6.504838 -0.129977
v -0.838282 6.454688 -0.171429
v -0.889941 6.633915 -0.130505
v -1.496525 6.833915 -0.258273
v -0.889942 5.692432 -0.130505
v -0.790265 5.692432 -0.172162
v -0.924524 5.563355 -0.129977
v -0.924524 5.821508 -0.129977
v -0.838284 5.871659 -0.171429
v -1.019004 5.915999 -0.128535
v -0.969471 6.002862 -0.169426
v -1.148065 5.950585 -0.126564
v -1.148678 6.050886 -0.166690
v -1.277126 5.915999 -0.124593
v -1.327884 6.002862 -0.163953
v -1.371606 5.821508 -0.123151
v -1.459072 5.871659 -0.161950
v -1.406188 5.692432 -0.122623
v -1.507090 5.692432 -0.161217
v -1.371606 5.563355 -0.123151
v -1.459072 5.513205 -0.161950
v -1.277126 5.468865 -0.124593
v -1.327884 5.382002 -0.163953
v -1.148065 5.434279 -0.126564
v -1.148678 5.333978 -0.166690
v -1.019004 5.468865 -0.128535
v -0.969471 5.382002 -0.169426
v -0.950180 5.346022 -0.266615
v -0.838284 5.513205 -0.171429
v -0.803787 5.492432 -0.268851
v -0.750204 5.692432 -0.269669
v -0.805515 5.492432 -0.381994
v -0.751931 5.692432 -0.382812
v -0.951908 5.346022 -0.379759
v -1.151884 5.292432 -0.376705
v -1.150157 5.292432 -0.263562
v -1.351861 5.346022 -0.373652
v -1.350133 5.346022 -0.260508
v -1.498254 5.492432 -0.371416
v -1.496527 5.492432 -0.258273
v -1.551838 5.692432 -0.370598
v -1.550110 5.692432 -0.257455
v -1.498254 5.892432 -0.371416
v -1.496527 5.892432 -0.258273
v -0.805515 5.892432 -0.381994
v -0.803787 5.892432 -0.268851
v -0.838284 5.871659 -0.171429
v -0.969471 6.002862 -0.169426
v -1.148678 6.050886 -0.166690
v -1.327884 6.002862 -0.163953
v -1.459072 5.871659 -0.161950
v -1.498254 5.892432 -0.371416
v -1.498254 6.833915 -0.371416
v -0.805515 6.833915 -0.381994
v -0.803787 6.833915 -0.268851
v -0.950180 6.980325 -0.266615
v -0.838284 6.813142 -0.171429
v -0.969471 6.944345 -0.169426
v -1.148678 6.992369 -0.166690
v -1.150157 7.033915 -0.263562
v -1.327884 6.944345 -0.163953
v -1.459072 6.813142 -0.161950
v -1.496527 6.833915 -0.258273
v -1.350133 6.980325 -0.260508
v -1.351861 6.980325 -0.373652
v -1.151884 7.033915 -0.376705
v -0.951908 6.980325 -0.379759
v -1.496527 5.892432 -0.258273
v -1.351861 6.038842 -0.373652
v -1.350133 6.038842 -0.260508
v -1.151884 6.092432 -0.376705
v -1.150157 6.092432 -0.263562
v -0.951908 6.038842 -0.379759
v -0.950180 6.038842 -0.266615
v -0.805515 5.892432 -0.381994
v -0.803787 5.892432 -0.268851
v -0.838283 5.871659 -0.174479
v -0.969471 6.002862 -0.172476
v -1.148677 6.050886 -0.169740
v -1.327883 6.002862 -0.167004
v -1.459071 5.871659 -0.165000
v -0.805514 5.492432 -0.385044
v -0.751931 5.692432 -0.385862
v -0.951907 5.346022 -0.382809
v -1.151884 5.292432 -0.379755
v -1.351860 5.346022 -0.376702
v -1.498254 5.492432 -0.374467
v -1.551837 5.692432 -0.373648
v -1.498254 5.892432 -0.374467
v -1.865481 5.465475 -0.368859
v -1.777920 5.177186 -0.370196
v -1.878114 5.465475 -1.196218
v -1.865481 6.920583 -0.368859
v -1.878114 6.920583 -1.196218
v -1.777920 7.208872 -0.370196
v -1.551837 6.633915 -0.373648
v -1.498254 6.833915 -0.374467
v -1.498254 6.433915 -0.374467
v -1.351860 6.287504 -0.376702
v -1.151884 6.233915 -0.379755
v -0.951907 6.287504 -0.382809
v -0.805514 6.433915 -0.385044
v -0.751931 6.633915 -0.385862
v -0.805514 6.833915 -0.385044
v -0.457309 6.920583 -0.390361
v -0.544870 7.208872 -0.389024
v -0.469942 6.920583 -1.217720
v -0.457309 5.465475 -0.390361
v -0.462850 6.313164 -0.753236
v -0.466245 6.313164 -0.975582
v -0.462850 6.072894 -0.753236
v 1.555973 6.313164 -0.797002
v 1.801386 6.313164 -0.800749
v 1.552578 6.313164 -1.019348
v 1.555973 6.072894 -0.797002
v 1.555973 6.565435 -0.797002
v 1.801386 6.565435 -0.800749
v 1.552578 6.565435 -1.019348
v 1.797991 6.565435 -1.023095
v 1.797991 6.313164 -1.023095
v 1.797991 6.072894 -1.023095
v 1.801386 6.072894 -0.800749
v 1.552578 6.072894 -1.019348
v 1.797991 -0.042328 -1.023095
v 1.801386 -0.042328 -0.800749
v 1.552578 -0.042328 -1.019348
v 1.555973 -0.042328 -0.797002
v -0.466245 6.072894 -0.975582
v -0.469942 5.465475 -1.217720
v -0.557503 5.177186 -1.216383
v -0.544870 5.177186 -0.389024
v -0.768893 5.057773 -1.213155
v -0.756259 5.057773 -0.385796
v -1.579164 5.057773 -1.200783
v -1.790554 5.177186 -1.197555
v -1.566530 5.057773 -0.373424
v -0.557503 7.208872 -1.216383
v -0.768893 7.328285 -1.213155
v -0.756259 7.328285 -0.385796
v -1.579164 7.328285 -1.200783
v -1.790554 7.208872 -1.197555
v -1.566530 7.328285 -0.373424
v -0.838283 6.813142 -0.174479
v -0.969471 6.944345 -0.172476
v -0.836025 6.813142 -0.026584
v -0.967213 6.944345 -0.024580
v -1.146419 6.992369 -0.021844
v -1.325625 6.944345 -0.019108
v -1.148677 6.992369 -0.169740
v -1.327883 6.944345 -0.167004
v -1.459071 6.813142 -0.165000
v -1.456813 6.813142 -0.017105
v -1.351860 6.980325 -0.376702
v -1.151884 7.033915 -0.379755
v -0.951907 6.980325 -0.382809
v -1.351860 6.038842 -0.376702
v -1.151884 6.092432 -0.379755
v -0.951907 6.038842 -0.382809
v -0.805514 5.892432 -0.385044
v -1.456813 5.871659 -0.017105
v -1.325625 6.002862 -0.019108
v -1.146419 6.050886 -0.021844
v -0.967213 6.002862 -0.024580
v -0.836025 5.871659 -0.026584
vn -0.9658 0.2588 0.0147
vn -0.9658 -0.2588 0.0147
vn -0.7070 -0.7071 0.0108
vn -0.2588 -0.9659 0.0040
vn 0.2588 -0.9659 -0.0040
vn 0.7070 -0.7071 -0.0108
vn 0.9658 -0.2588 -0.0147
vn 0.9658 0.2588 -0.0147
vn 0.8981 0.2391 0.3690
vn 0.8981 -0.2391 0.3690
vn 0.2847 0.2706 0.9196
vn 0.3837 0.0990 0.9181
vn -0.0849 0.3696 0.9253
vn 0.1131 0.3696 0.9223
vn 0.0153 -0.0000 0.9999
vn -0.2565 0.2706 0.9279
vn -0.3555 0.0990 0.9294
vn -0.3555 -0.0990 0.9294
vn -0.2565 -0.2706 0.9279
vn -0.0849 -0.3696 0.9253
vn 0.1131 -0.3696 0.9223
vn 0.2847 -0.2706 0.9196
vn 0.3837 -0.0990 0.9181
vn 0.6590 -0.6533 0.3727
vn 0.2449 -0.8924 0.3790
vn -0.2332 -0.8924 0.3863
vn -0.6474 -0.6533 0.3926
vn -0.8865 -0.2391 0.3963
vn -0.8865 0.2391 0.3963
vn 0.6591 0.6533 0.3727
vn 0.7070 0.7071 -0.0108
vn 0.2449 0.8924 0.3790
vn -0.2332 0.8924 0.3863
vn -0.6474 0.6533 0.3926
vn -0.7070 0.7071 0.0108
vn -0.2588 0.9659 0.0040
vn 0.2588 0.9659 -0.0040
vn -0.9567 -0.2906 0.0146
vn -0.9999 -0.0000 0.0153
vn -0.9567 0.2906 0.0146
vn 0.9567 0.2906 -0.0146
vn 0.9999 -0.0000 -0.0153
vn -0.0000 1.0000 -0.0000
vn 0.0217 -0.0000 0.9998
vn -0.0153 -0.0000 -0.9999
vn -0.0000 -1.0000 -0.0000
vn -0.0217 -0.0000 -0.9998
vn 0.9567 -0.2906 -0.0146
vn 0.4917 -0.8707 -0.0075
vn -0.4917 -0.8707 0.0075
vn 0.4917 0.8707 -0.0075
vn -0.4917 0.8707 0.0075
vn 0.6590 0.6533 0.3727
vt 0.500000 0.750170
vt 0.416667 0.637014
vt 0.500000 0.637014
vt 0.583333 0.750170
vt 0.583333 0.637014
vt 0.666667 0.750170
vt 0.666667 0.637014
vt 0.750000 0.750170
vt 0.750000 0.637014
vt 0.833333 0.750170
vt 0.833333 0.637014
vt 0.916667 0.750170
vt 0.916667 0.637014
vt 1.000000 0.750170
vt 1.000000 0.637014
vt 0.083333 0.750170
vt 0.000000 0.637014
vt 0.083333 0.637014
vt 0.004328 0.500000
vt 0.079006 0.500000
vt 0.995672 0.500000
vt 0.546716 0.374562
vt 0.672554 0.384140
vt 0.615860 0.327446
vt 0.636232 0.459516
vt 0.750000 0.404892
vt 0.511670 0.243768
vt 0.615860 0.172554
vt 0.540484 0.136232
vt 0.511670 0.256232
vt 0.595108 0.250000
vt 0.904892 0.250000
vt 0.672554 0.115860
vt 0.546716 0.125438
vt 0.625438 0.046716
vt 0.636232 0.040484
vt 0.750000 0.095108
vt 0.743768 0.011670
vt 0.863768 0.040484
vt 0.827446 0.115860
vt 0.953284 0.125438
vt 0.884140 0.172554
vt 0.988330 0.243768
vt 0.988330 0.256232
vt 0.884140 0.327446
vt 0.959516 0.363768
vt 0.953284 0.374562
vt 0.827446 0.384140
vt 0.874562 0.453284
vt 0.863768 0.459516
vt 0.756232 0.488330
vt 0.912339 0.500000
vt 0.829006 0.500000
vt 0.670994 0.500000
vt 0.745672 0.500000
vt 0.587661 0.500000
vt 0.662339 0.500000
vt 0.504328 0.500000
vt 0.579006 0.500000
vt 0.495672 0.500000
vt 0.166667 0.637014
vt 0.087661 0.500000
vt 0.162339 0.500000
vt 0.166667 0.750170
vt 0.250000 0.637014
vt 0.170994 0.500000
vt 0.245672 0.500000
vt 0.329006 0.500000
vt 0.333333 0.637014
vt 0.412339 0.500000
vt 0.416667 0.750170
vt 0.333333 0.750170
vt 0.250000 0.750170
vt 0.000000 0.000000
vt 0.254328 0.500000
vt 0.337661 0.500000
vt 0.000000 0.750170
vt 0.920994 0.500000
vt 0.625438 0.453284
vt 0.743768 0.488330
vt 0.540484 0.363768
vt 0.756232 0.011670
vt 0.874562 0.046716
vt 0.959516 0.136232
vt 0.837661 0.500000
vt 0.754328 0.500000
vt 0.420994 0.500000
vt 0.333333 0.750170
s 0
usemtl go
f 1/1/1 2/3/1 42/2/1
f 4/4/2 5/5/2 2/3/2
f 6/6/3 7/7/3 5/5/3
f 8/8/4 9/9/4 7/7/4
f 10/10/5 11/11/5 9/9/5
f 12/12/6 13/13/6 11/11/6
f 14/14/7 16/15/7 13/13/7
f 15/16/8 18/18/8 16/17/8
f 18/18/9 19/20/9 17/19/9
f 13/13/10 16/15/10 17/21/10
f 20/22/11 26/24/11 21/23/11
f 19/25/12 21/23/12 41/26/12
f 22/27/13 23/29/13 25/28/13
f 22/30/14 24/31/14 26/24/14
f 35/32/15 21/23/15 27/33/15
f 23/34/16 28/35/16 27/33/16
f 28/36/17 30/38/17 29/37/17
f 32/39/18 31/40/18 29/37/18
f 34/41/19 33/42/19 31/40/19
f 36/43/20 35/32/20 33/42/20
f 36/44/21 38/46/21 37/45/21
f 38/47/22 40/49/22 39/48/22
f 40/50/23 17/51/23 41/26/23
f 11/11/24 13/13/24 40/52/24
f 9/9/25 11/11/25 38/53/25
f 9/9/26 36/55/26 34/54/26
f 7/7/27 34/57/27 32/56/27
f 5/5/28 32/59/28 30/58/28
f 42/2/29 2/3/29 30/60/29
f 1/1/1 42/2/1 3/71/1
f 4/4/2 2/3/2 1/1/2
f 6/6/3 5/5/3 4/4/3
f 8/8/4 7/7/4 6/6/4
f 10/10/5 9/9/5 8/8/5
f 12/12/6 11/11/6 10/10/6
f 14/14/7 13/13/7 12/12/7
f 15/16/8 16/17/8 14/77/8
f 18/18/9 17/19/9 16/17/9
f 13/13/10 17/21/10 40/78/10
f 20/22/11 21/23/11 19/79/11
f 19/25/12 41/26/12 17/80/12
f 22/27/13 25/28/13 24/31/13
f 22/30/14 26/24/14 20/81/14
f 21/23/15 39/48/15 41/26/15
f 39/48/15 35/32/15 37/45/15
f 35/32/15 31/40/15 33/42/15
f 31/40/15 27/33/15 29/37/15
f 27/33/15 24/31/15 25/28/15
f 24/31/15 21/23/15 26/24/15
f 21/23/15 35/32/15 39/48/15
f 35/32/15 27/33/15 31/40/15
f 27/33/15 21/23/15 24/31/15
f 23/34/16 27/33/16 25/28/16
f 28/36/17 29/37/17 27/33/17
f 32/39/18 29/37/18 30/82/18
f 34/41/19 31/40/19 32/83/19
f 36/43/20 33/42/20 34/84/20
f 36/44/21 37/45/21 35/32/21
f 38/47/22 39/48/22 37/45/22
f 40/50/23 41/26/23 39/48/23
f 11/11/24 40/52/24 38/85/24
f 9/9/25 38/53/25 36/86/25
f 9/9/26 34/54/26 7/7/26
f 7/7/27 32/56/27 5/5/27
f 5/5/28 30/58/28 2/3/28
f 42/2/29 30/60/29 28/87/29
usemtl stop
f 47/25/12 46/23/12 43/26/12
f 67/50/23 44/51/23 43/26/23
f 62/32/15 46/23/15 54/33/15
f 49/22/11 48/24/11 46/23/11
f 51/30/14 50/31/14 48/24/14
f 51/27/13 53/29/13 52/28/13
f 53/34/16 55/35/16 54/33/16
f 55/36/17 57/38/17 56/37/17
f 59/39/18 58/40/18 56/37/18
f 61/41/19 60/42/19 58/40/19
f 63/43/20 62/32/20 60/42/20
f 63/44/21 65/46/21 64/45/21
f 65/47/22 67/49/22 45/48/22
f 74/9/25 66/11/25 65/53/25
f 66/11/24 68/13/24 67/52/24
f 68/13/10 69/15/10 44/21/10
f 71/14/7 69/15/7 68/13/7
f 70/12/6 68/13/6 66/11/6
f 72/10/5 66/11/5 74/9/5
f 73/8/4 74/9/4 76/7/4
f 75/6/3 76/7/3 78/5/3
f 77/4/2 78/5/2 80/3/2
f 79/1/1 80/3/1 82/2/1
f 83/16/8 84/18/8 69/17/8
f 84/18/9 47/20/9 44/19/9
f 82/2/29 80/3/29 57/60/29
f 78/5/28 59/59/28 57/58/28
f 76/7/27 61/57/27 59/56/27
f 74/9/26 63/55/26 61/54/26
f 47/25/12 43/26/12 44/80/12
f 67/50/23 43/26/23 45/48/23
f 46/23/15 45/48/15 43/26/15
f 45/48/15 62/32/15 64/45/15
f 62/32/15 58/40/15 60/42/15
f 58/40/15 54/33/15 56/37/15
f 54/33/15 50/31/15 52/28/15
f 50/31/15 46/23/15 48/24/15
f 46/23/15 62/32/15 45/48/15
f 62/32/15 54/33/15 58/40/15
f 54/33/15 46/23/15 50/31/15
f 49/22/11 46/23/11 47/79/11
f 51/30/14 48/24/14 49/81/14
f 51/27/13 52/28/13 50/31/13
f 53/34/16 54/33/16 52/28/16
f 55/36/17 56/37/17 54/33/17
f 59/39/18 56/37/18 57/82/18
f 61/41/19 58/40/19 59/83/19
f 63/43/20 60/42/20 61/84/20
f 63/44/21 64/45/21 62/32/21
f 65/47/22 45/48/22 64/45/22
f 74/9/25 65/53/25 63/86/25
f 66/11/24 67/52/24 65/85/24
f 68/13/10 44/21/10 67/78/10
f 71/14/7 68/13/7 70/12/7
f 70/12/6 66/11/6 72/10/6
f 72/10/5 74/9/5 73/8/5
f 73/8/4 76/7/4 75/6/4
f 75/6/3 78/5/3 77/4/3
f 77/4/2 80/3/2 79/1/2
f 79/1/1 82/2/1 81/71/1
f 83/16/8 69/17/8 71/77/8
f 84/18/9 44/19/9 69/17/9
f 82/2/29 57/60/29 55/87/29
f 78/5/28 57/58/28 80/3/28
f 76/7/27 59/56/27 78/5/27
f 74/9/26 61/54/26 76/7/26
usemtl b_stand
f 94/61/30 96/63/30 95/62/30
f 105/64/31 94/61/31 93/18/31
f 98/65/32 97/67/32 96/66/32
f 98/65/33 102/69/33 99/68/33
f 102/69/34 101/2/34 100/70/34
f 91/71/35 101/2/35 102/69/35
f 103/72/36 102/69/36 98/65/36
f 104/73/37 98/65/37 94/61/37
f 90/71/35 106/2/35 108/69/35
f 108/69/36 110/65/36 109/73/36
f 109/73/37 110/65/37 112/61/37
f 111/64/31 112/61/31 114/18/31
f 112/61/30 86/63/30 85/62/30
f 110/65/32 87/67/32 86/66/32
f 110/65/33 108/69/33 88/68/33
f 108/69/34 106/2/34 89/70/34
f 169/74/15 123/74/15 174/74/15
f 140/74/15 197/74/15 146/74/15
f 130/74/38 173/74/38 129/74/38
f 132/74/39 130/74/39 128/74/39
f 179/74/40 132/74/40 131/74/40
f 133/74/15 192/74/15 193/74/15
f 145/74/41 175/74/41 144/74/41
f 147/74/42 148/74/42 145/74/42
f 149/74/42 147/74/42 143/74/42
f 148/74/43 147/74/43 150/74/43
f 150/74/44 147/74/44 149/74/44
f 154/74/15 150/74/15 151/74/15
f 151/74/15 150/74/15 153/74/15
f 156/74/39 152/74/39 150/74/39
f 157/74/43 156/74/43 154/74/43
f 157/74/45 158/74/45 152/74/45
f 155/74/42 151/74/42 158/74/42
f 151/74/42 160/74/42 159/74/42
f 159/74/45 161/74/45 152/74/45
f 162/74/42 159/74/42 160/74/42
f 164/74/45 161/74/45 159/74/45
f 163/74/46 165/74/46 164/74/46
f 165/74/39 153/74/39 161/74/39
f 163/74/15 160/74/15 153/74/15
f 161/74/47 166/74/47 148/74/47
f 153/74/46 149/74/46 166/74/46
f 167/74/42 166/74/42 149/74/42
f 145/74/42 148/74/42 166/74/42
f 168/74/48 167/74/48 146/74/48
f 176/74/45 168/74/45 130/74/45
f 170/74/49 168/74/49 169/74/49
f 171/74/46 174/74/46 172/74/46
f 173/74/50 172/74/50 174/74/50
f 175/74/51 176/74/51 177/74/51
f 178/74/43 180/74/43 177/74/43
f 178/74/52 179/74/52 133/74/52
f 181/62/31 182/63/31 184/63/31
f 184/66/37 182/66/37 187/67/37
f 185/75/36 187/75/36 188/68/36
f 186/76/35 188/76/35 189/70/35
f 199/76/35 118/76/35 119/70/35
f 200/75/36 117/75/36 118/68/36
f 201/66/37 116/66/37 117/67/37
f 115/62/31 116/63/31 201/63/31
f 94/61/53 95/62/53 93/18/53
f 105/64/31 93/18/31 92/16/31
f 98/65/32 96/66/32 94/61/32
f 98/65/33 99/68/33 97/75/33
f 102/69/34 100/70/34 99/76/34
f 91/71/35 102/69/35 103/72/35
f 103/72/36 98/65/36 104/73/36
f 104/73/37 94/61/37 105/64/37
f 90/71/35 108/69/35 107/88/35
f 108/69/36 109/73/36 107/88/36
f 109/73/37 112/61/37 111/64/37
f 111/64/31 114/18/31 113/16/31
f 112/61/53 85/62/53 114/18/53
f 110/65/32 86/66/32 112/61/32
f 110/65/33 88/68/33 87/75/33
f 108/69/34 89/70/34 88/76/34
f 121/74/15 169/74/15 146/74/15
f 169/74/15 174/74/15 171/74/15
f 174/74/15 128/74/15 129/74/15
f 128/74/15 125/74/15 126/74/15
f 128/74/15 124/74/15 125/74/15
f 120/74/15 169/74/15 121/74/15
f 122/74/15 169/74/15 120/74/15
f 174/74/15 124/74/15 128/74/15
f 123/74/15 169/74/15 122/74/15
f 174/74/15 123/74/15 124/74/15
f 126/74/15 131/74/15 128/74/15
f 131/74/15 136/74/15 134/74/15
f 126/74/15 136/74/15 131/74/15
f 127/74/15 136/74/15 126/74/15
f 127/74/15 137/74/15 136/74/15
f 194/74/15 137/74/15 127/74/15
f 194/74/15 138/74/15 137/74/15
f 195/74/15 138/74/15 194/74/15
f 195/74/15 139/74/15 138/74/15
f 196/74/15 139/74/15 195/74/15
f 140/74/15 143/74/15 141/74/15
f 196/74/15 140/74/15 139/74/15
f 146/74/15 197/74/15 121/74/15
f 197/74/15 140/74/15 196/74/15
f 140/74/15 146/74/15 143/74/15
f 130/74/38 129/74/38 128/74/38
f 132/74/39 128/74/39 131/74/39
f 179/74/40 131/74/40 133/74/40
f 134/74/15 133/74/15 131/74/15
f 133/74/15 177/74/15 180/74/15
f 177/74/15 143/74/15 144/74/15
f 143/74/15 142/74/15 141/74/15
f 143/74/15 193/74/15 142/74/15
f 133/74/15 143/74/15 177/74/15
f 135/74/15 133/74/15 134/74/15
f 191/74/15 133/74/15 135/74/15
f 133/74/15 193/74/15 143/74/15
f 192/74/15 133/74/15 191/74/15
f 145/74/41 144/74/41 143/74/41
f 147/74/42 145/74/42 143/74/42
f 149/74/42 143/74/42 146/74/42
f 148/74/43 150/74/43 152/74/43
f 150/74/44 149/74/44 153/74/44
f 154/74/15 151/74/15 155/74/15
f 151/74/15 153/74/15 160/74/15
f 156/74/39 150/74/39 154/74/39
f 157/74/43 154/74/43 155/74/43
f 157/74/45 152/74/45 156/74/45
f 155/74/42 158/74/42 157/74/42
f 151/74/42 159/74/42 158/74/42
f 159/74/45 152/74/45 158/74/45
f 162/74/42 160/74/42 163/74/42
f 164/74/45 159/74/45 162/74/45
f 163/74/46 164/74/46 162/74/46
f 165/74/39 161/74/39 164/74/39
f 163/74/15 153/74/15 165/74/15
f 161/74/47 148/74/47 152/74/47
f 153/74/46 166/74/46 161/74/46
f 167/74/42 149/74/42 146/74/42
f 145/74/42 166/74/42 167/74/42
f 168/74/48 146/74/48 169/74/48
f 168/74/45 145/74/45 167/74/45
f 145/74/45 176/74/45 175/74/45
f 176/74/45 179/74/45 178/74/45
f 179/74/45 130/74/45 132/74/45
f 130/74/45 172/74/45 173/74/45
f 172/74/45 168/74/45 170/74/45
f 168/74/45 176/74/45 145/74/45
f 176/74/45 130/74/45 179/74/45
f 130/74/45 168/74/45 172/74/45
f 170/74/49 169/74/49 171/74/49
f 171/74/46 172/74/46 170/74/46
f 173/74/50 174/74/50 129/74/50
f 175/74/51 177/74/51 144/74/51
f 178/74/43 177/74/43 176/74/43
f 178/74/52 133/74/52 180/74/52
f 181/62/31 184/63/31 183/62/31
f 184/66/37 187/67/37 185/67/37
f 185/75/36 188/68/36 186/68/36
f 186/76/35 189/70/35 190/70/35
f 199/76/35 119/70/35 198/70/35
f 200/75/36 118/68/36 199/68/36
f 201/66/37 117/67/37 200/67/37
f 115/62/31 201/63/31 202/62/31
