# Blender 4.2.2 LTS
# www.blender.org
mtllib rock2.mtl
o rock
v 0.809181 0.010867 1.137114
v -1.950614 0.010867 1.137114
v 0.809181 0.010867 -1.178761
v -1.950614 0.010867 -1.178761
v 0.809181 0.869897 1.137114
v -1.506691 0.869897 0.641580
v 0.809181 0.869897 -1.178761
v -1.470916 0.814248 -0.683229
v -0.753727 0.010867 1.137114
v -0.753727 0.010867 -1.178761
v -0.753727 0.869897 1.137114
v -0.753727 0.869897 -1.178761
v 0.732834 1.295456 1.147952
v 0.809181 1.359411 -1.052558
v -0.189955 1.470952 1.137114
v -0.189955 1.470952 -1.178761
v 1.393898 0.010867 1.137114
v 1.393898 0.010867 -1.178761
v 1.393898 0.466781 1.137114
v 1.393898 0.466781 -1.178761
v 0.027728 0.010867 1.317949
v 0.027728 0.010867 -1.320214
v 0.027728 0.869897 1.317949
v 0.027728 0.869897 -1.320214
v 0.309613 1.415181 0.994000
v 0.309613 1.415181 -1.178761
v -1.950614 0.010867 -0.020823
v -1.506691 0.869897 -0.020823
v 0.809181 0.869897 -0.020823
v -0.753727 0.869897 -0.020823
v 0.809181 1.359411 0.042276
v -0.189955 1.470952 -0.020823
v 1.393898 0.010867 -0.020823
v 1.393898 0.466781 -0.020823
v 0.309613 1.415181 -0.092378
vn 0.1758 0.1611 -0.9712
vn -0.8586 0.5127 -0.0000
vn -0.0000 0.4997 0.8662
vn -0.0000 -0.0000 -1.0000
vn 0.1781 -0.0000 -0.9840
vn -0.0000 0.5250 -0.8511
vn -0.2255 -0.0000 0.9743
vn -0.0000 0.9965 -0.0837
vn 0.1109 0.9938 -0.0000
vn 1.0000 -0.0000 -0.0000
vn -0.7294 0.6841 -0.0000
vn -0.2206 0.2069 0.9532
vn 0.5676 0.8233 -0.0000
vn -0.0000 -0.0000 1.0000
vn 0.2254 0.0156 0.9741
vn 0.2255 -0.0000 0.9743
vn -0.1781 -0.0000 -0.9840
vn -0.1757 0.1648 -0.9706
vn -0.0000 1.0000 -0.0000
vn -0.8884 0.4591 -0.0000
vn 0.2629 0.2409 -0.9343
vn -0.8851 0.4574 -0.0862
vn -0.5497 -0.0000 0.8353
vn -0.5684 -0.0000 -0.8227
vn -0.0774 0.9970 -0.0000
vn 0.9816 0.1741 0.0779
vn 0.2938 0.3714 0.8808
vn -0.1396 0.5581 0.8179
vn 0.0266 0.2381 -0.9709
vn 0.2468 0.9663 0.0729
s 0
usemtl rock
f 26//1 7//1 24//1
f 27//2 8//2 4//2
f 9//3 6//3 2//3
f 20//4 3//4 7//4
f 24//5 3//5 22//5
f 8//6 10//6 4//6
f 23//7 9//7 21//7
f 30//8 8//8 28//8
f 35//9 14//9 26//9
f 31//10 5//10 29//10
f 32//11 12//11 30//11
f 23//12 15//12 11//12
f 34//10 17//10 33//10
f 34//13 7//13 29//13
f 1//14 19//14 5//14
f 13//15 23//15 5//15
f 35//9 16//9 32//9
f 5//16 21//16 1//16
f 12//17 22//17 10//17
f 16//18 24//18 12//18
f 25//9 32//9 15//9
f 19//13 29//13 5//13
f 20//10 33//10 18//10
f 15//11 30//11 11//11
f 14//10 29//10 7//10
f 25//9 31//9 35//9
f 6//19 30//19 28//19
f 6//20 27//20 2//20
f 26//21 14//21 7//21
f 27//22 28//22 8//22
f 9//23 11//23 6//23
f 20//4 18//4 3//4
f 24//5 7//5 3//5
f 8//24 12//24 10//24
f 23//7 11//7 9//7
f 30//25 12//25 8//25
f 35//9 31//9 14//9
f 31//26 13//26 5//26
f 32//11 16//11 12//11
f 23//27 25//27 15//27
f 34//10 19//10 17//10
f 34//13 20//13 7//13
f 1//14 17//14 19//14
f 13//28 25//28 23//28
f 35//9 26//9 16//9
f 5//16 23//16 21//16
f 12//17 24//17 22//17
f 16//29 26//29 24//29
f 25//9 35//9 32//9
f 19//13 34//13 29//13
f 20//10 34//10 33//10
f 15//11 32//11 30//11
f 14//10 31//10 29//10
f 25//30 13//30 31//30
f 6//19 11//19 30//19
f 6//20 28//20 27//20
