# Blender 4.2.2 LTS
# www.blender.org
mtllib tree2.mtl
o tree2.003
v 0.932237 3.895960 0.496982
v -1.207245 3.853698 0.884743
v 1.036910 3.828763 -0.923342
v -1.122591 3.844752 -0.737402
v 1.075581 5.925167 0.876795
v -1.301734 5.683349 0.586492
v 0.767878 5.762240 -1.032573
v -1.115655 5.445760 -0.782717
v -0.220805 3.710070 0.897297
v -0.211809 3.981427 -1.355538
v -0.241499 5.776928 0.902174
v -0.211809 5.762240 -1.032573
v 1.249574 4.068437 -0.494133
v -1.351357 5.836649 -0.243789
v 0.767878 6.030311 -0.058951
v -0.366184 6.374195 -0.040446
v -1.203058 4.877554 0.659949
v 1.241834 4.770424 0.876842
v 1.050953 4.871833 -0.896095
v -1.191496 4.871833 -0.782717
v -0.199333 4.848999 -1.345837
v -0.211809 4.871833 1.312363
v -1.543999 5.266568 -0.073332
v 1.307744 5.046740 -0.073847
v 1.801152 4.837137 0.682597
v 1.807898 4.076329 0.511538
v 1.895247 4.021790 -0.053061
v 1.902647 4.777928 -0.004250
v -1.940612 3.768806 0.040293
v -1.745474 3.807721 -0.726765
v -1.935431 4.422476 -0.704353
v -1.487302 3.852404 0.717329
v -1.725968 4.697175 0.626874
v -1.857203 5.051408 0.023680
v 0.140237 3.749070 0.955681
v 0.292243 3.927221 -1.246563
v 0.360938 5.806137 0.904466
v 0.278035 5.762240 -1.032573
v 0.278035 6.459512 -0.058951
v 0.568653 4.667414 1.114672
v 0.577059 4.798012 -1.280934
v -0.454185 3.754333 0.944740
v -0.701653 3.981427 -1.122420
v -0.887733 5.854296 0.574923
v -0.706917 5.692079 -0.684017
v -0.887733 6.060645 -0.137274
v -0.701653 4.871833 -1.221093
v -0.701653 4.871833 1.113517
v 1.282670 4.451307 1.092137
v 1.362827 4.026066 1.213932
v 0.920790 4.413098 1.278709
v 0.803103 3.990985 1.472228
v 0.332563 4.102836 -1.685696
v 0.082723 4.068629 -1.713071
v 0.091212 4.572403 -1.627744
v 0.466870 4.616851 -1.511919
v -0.663072 4.011244 1.417330
v -1.163698 3.965756 1.237808
v -1.185709 4.538901 1.227176
v -0.994738 4.577457 1.448416
v 0.552166 4.530505 -0.080662
v 0.593463 4.504808 -0.060516
v -0.154371 3.394659 -0.174487
v 0.510869 4.556202 -0.060516
v 0.493763 4.566846 -0.011880
v -0.179633 3.559831 -0.120567
v -0.165311 3.614020 -0.071756
v -0.175886 3.641609 -0.011880
v -0.604911 4.468723 -0.027359
v -0.649843 4.468723 -0.089204
v -0.604911 4.468723 0.049085
v -0.649843 4.468723 0.110929
v -0.157242 3.592972 0.093679
v -0.157598 3.591626 0.094891
v -0.132782 3.429366 0.147861
v 0.510869 4.556202 0.036757
v 0.552166 4.530505 0.056903
v 0.593463 4.504808 0.036757
v 0.610569 4.494164 -0.011880
v -0.060599 3.326965 0.103494
v -0.056072 3.329036 0.096153
v 0.165920 2.407640 0.062164
v -0.034851 3.273673 -0.011880
v -0.047181 3.305838 -0.074645
v 0.165920 2.407640 -0.040438
v -0.080892 3.290420 -0.129324
v 0.105612 2.407640 -0.123444
v 0.314831 0.219611 -0.088823
v 0.197644 0.219611 -0.250116
v 0.314831 0.219611 0.110546
v 0.197644 0.219611 0.271839
v 0.008033 0.219611 0.333448
v 0.105612 2.407640 0.145170
v 0.008033 2.407640 0.176875
v -0.089547 2.407640 0.145170
v -0.722546 4.468723 0.134552
v -0.795248 4.468723 0.110929
v -0.840181 4.468723 0.049085
v -0.840181 4.468723 -0.027359
v -0.149854 2.407640 0.062164
v -0.149854 2.407640 -0.040438
v -0.298765 0.219611 0.110546
v -0.181579 0.219611 0.271839
v -0.298765 0.219611 -0.088823
v -0.181579 0.219611 -0.250116
v 0.008033 0.219611 -0.311724
v -0.089547 2.407640 -0.123444
v 0.008033 2.407640 -0.155150
v -0.795248 4.468723 -0.089204
v -0.722546 4.468723 -0.112826
vn 0.5802 0.6622 -0.4742
vn -0.6442 0.2703 0.7155
vn 0.9839 0.1417 0.1094
vn 0.6211 0.0779 -0.7798
vn -0.8629 0.1140 -0.4923
vn -0.2153 0.3142 -0.9246
vn 0.2942 0.2251 0.9288
vn -0.3273 0.7298 -0.6002
vn -0.5325 0.8130 0.2356
vn -0.9191 -0.0773 0.3863
vn 0.9114 0.2384 -0.3353
vn 0.6002 0.6850 0.4129
vn 0.8961 -0.0005 -0.4438
vn -0.5716 0.5628 -0.5972
vn -0.1153 -0.3334 0.9357
vn -0.4276 -0.0996 -0.8985
vn 0.3754 -0.1588 -0.9132
vn 0.0712 -0.4185 0.9054
vn 0.9878 -0.0197 0.1547
vn 0.2698 0.3665 -0.8904
vn -0.0180 0.9604 0.2779
vn -0.8093 -0.1684 0.5627
vn -0.9276 -0.2775 -0.2501
vn -0.0753 -0.0490 -0.9960
vn -0.5047 0.1871 0.8428
vn -0.3443 0.7536 0.5599
vn -0.0447 -0.9614 -0.2713
vn 0.1516 0.6754 0.7217
vn -0.0950 0.8352 0.5417
vn 0.2938 0.2251 0.9290
vn 0.0981 0.2766 -0.9560
vn -0.1260 0.8355 -0.5349
vn 0.1264 -0.3346 0.9338
vn -0.6591 -0.0772 -0.7480
vn -0.4619 0.8668 0.1877
vn -0.2769 0.7162 -0.6406
vn -0.6643 0.0878 -0.7423
vn -0.3483 0.3774 0.8580
vn 0.3853 0.2936 0.8748
vn -0.6437 0.1712 0.7459
vn 0.9068 -0.1498 -0.3941
vn 0.1853 -0.9827 -0.0027
vn 0.0851 0.1650 -0.9826
vn 0.9291 -0.3117 -0.1987
vn -0.6874 0.0180 -0.7261
vn 0.1036 0.7580 -0.6439
vn -0.3096 -0.2320 0.9221
vn -0.9992 0.0124 0.0380
vn 0.9320 0.1571 0.3266
vn -0.4205 0.7733 0.4746
vn 0.3584 -0.1468 -0.9219
vn 0.5283 0.8490 -0.0000
vn -0.2901 0.2566 -0.9220
vn -0.7487 0.5419 -0.3819
vn 0.6481 0.1319 -0.7500
vn 0.8877 0.4604 -0.0000
vn 0.5745 0.3321 0.7481
vn -0.7487 0.5419 0.3819
vn -0.2901 0.2566 0.9220
vn 0.3584 -0.1468 0.9219
vn 0.8170 -0.4320 0.3819
vn 0.9718 0.2228 0.0767
vn 0.8170 -0.4320 -0.3819
vn 0.8072 0.0679 -0.5864
vn 0.9977 0.0679 -0.0000
vn -0.0000 -1.0000 -0.0000
vn 0.8072 0.0679 0.5864
vn 0.3083 0.0679 0.9489
vn 0.3065 0.1280 0.9432
vn -0.3078 -0.0896 0.9472
vn -0.3083 0.0679 0.9489
vn -0.7816 -0.2582 0.5679
vn -0.9482 -0.3176 -0.0000
vn -0.8072 0.0679 0.5864
vn -0.9977 0.0679 -0.0000
vn -0.8072 0.0679 -0.5864
vn -0.3083 0.0679 -0.9489
vn -0.7816 -0.2582 -0.5679
vn -0.3078 -0.0896 -0.9472
vn 0.3065 0.1280 -0.9432
vn 0.3083 0.0679 -0.9489
vn -0.0000 0.9641 -0.2655
vn -0.0092 0.0897 0.9959
vn 0.8522 0.4712 -0.2273
vn -0.0000 0.2494 -0.9684
vn -0.8627 0.1469 -0.4838
vn -0.5552 0.4531 -0.6974
vn -0.0234 0.4120 0.9109
vn -0.4652 0.7192 -0.5160
vn -0.1769 0.8206 0.5434
vn -0.9291 0.3499 0.1201
vn 0.8681 0.4785 -0.1317
vn -0.1561 0.9746 0.1608
vn 0.9468 0.0778 -0.3123
vn -0.4746 0.6906 -0.5456
vn 0.1765 -0.2473 0.9527
vn -0.2404 0.0143 -0.9706
vn 0.6292 0.0118 -0.7771
vn 0.3428 -0.2032 0.9172
vn 0.9887 -0.0246 0.1482
vn 0.5658 0.0476 -0.8232
vn 0.4134 0.9104 -0.0174
vn -0.9662 0.0661 0.2490
vn -0.9966 0.0655 0.0505
vn -0.0189 0.0306 -0.9994
vn -0.0906 0.0807 0.9926
vn -0.3062 0.7903 0.5307
vn 0.1648 -0.9209 -0.3532
vn 0.3337 0.5562 0.7611
vn -0.0422 0.8252 0.5633
vn 0.0378 0.0055 0.9993
vn -0.0000 0.3245 -0.9459
vn -0.0000 0.8130 -0.5822
vn -0.3671 -0.2179 0.9043
vn -0.6646 -0.0823 -0.7426
vn -0.3624 0.8952 0.2594
vn -0.2344 0.7684 -0.5955
vn -0.1266 0.5428 -0.8303
vn -0.3788 0.3887 0.8399
vn 0.4069 0.3216 0.8550
vn -0.1002 0.4376 0.8936
vn 0.8561 0.0134 -0.5166
vn 0.2585 0.2481 -0.9336
vn 0.9683 -0.2494 -0.0108
vn -0.7804 0.1172 -0.6143
vn 0.1066 0.7624 -0.6382
vn -0.7554 -0.0169 0.6550
vn -0.9904 -0.0356 0.1334
vn 0.5753 0.2951 0.7629
vn -0.4966 0.8196 0.2858
vn 0.5283 0.8491 -0.0000
vn 0.7976 0.1672 -0.5795
vn 0.7735 0.2929 -0.5620
vn 0.6808 0.3826 -0.6246
vn 0.5461 0.3343 -0.7682
vn 0.8170 0.1689 -0.5513
vn -0.7500 -0.2296 -0.6203
vn 0.8880 0.4567 0.0536
vn 0.8868 0.4589 -0.0548
vn 0.7735 0.2929 0.5620
vn 0.8150 0.1760 0.5521
vn 0.6413 0.1240 0.7572
vn 0.6830 0.3809 0.6233
vn -0.7153 -0.2634 0.6473
vn -0.7487 0.5419 0.3820
vn 0.8170 -0.4321 0.3819
vn 0.9722 0.2342 -0.0000
vn 0.9709 0.2275 -0.0741
vn 0.8071 0.0679 -0.5864
vn 0.8071 0.0679 0.5864
vt 0.000000 0.000000
vt 1.000000 0.522322
vt 0.875000 1.000000
vt 0.875000 0.504579
vt 0.010000 0.250000
vt 0.250000 0.010000
vt 0.490000 0.250000
vt 0.125000 0.567635
vt 0.000000 1.000000
vt 0.000000 0.522322
vt 0.179576 0.586767
vt 0.250000 1.000000
vt 0.125000 1.000000
vt 0.802732 0.322580
vt 0.811408 0.310638
vt 0.822538 0.295319
vt 0.835322 0.257657
vt 0.835322 0.277723
vt 0.835322 0.222277
vt 0.822791 0.205029
vt 0.835032 0.221878
vt 0.373642 0.581907
vt 0.375000 1.000000
vt 0.375000 0.581432
vt 0.500000 1.000000
vt 0.500000 0.536918
vt 0.625000 1.000000
vt 0.632841 0.520970
vt 0.750000 1.000000
vt 0.835322 0.257346
vt 0.835322 0.222277
vt 0.817728 0.515614
vt 0.664678 0.222277
vt 0.697268 0.322579
vt 0.802732 0.177421
vt 0.750000 0.160287
vt 0.697268 0.177421
vt 0.664678 0.277723
vt 0.750000 0.339713
vt 1.000000 1.000000
vt 0.419706 0.419706
vt 0.250000 0.490000
vt 0.080294 0.419706
vt 0.080294 0.080294
vt 0.419706 0.080294
vt 0.250000 0.593136
vt 0.835322 0.277723
vt 0.823658 0.293777
vt 0.833602 0.219909
vt 0.625000 0.519488
vt 0.750000 0.508188
s 0
usemtl t_light
f 15/1/1 38/1/1 39/1/1
f 44/1/2 17/1/2 48/1/2
f 24/1/3 5/1/3 18/1/3
f 41/1/4 7/1/4 19/1/4
f 23/1/5 8/1/5 20/1/5
f 47/1/6 12/1/6 21/1/6
f 37/1/7 22/1/7 40/1/7
f 16/1/8 45/1/8 46/1/8
f 44/1/9 16/1/9 46/1/9
f 6/1/10 23/1/10 17/1/10
f 7/1/11 24/1/11 19/1/11
f 37/1/12 15/1/12 39/1/12
f 19/1/13 13/1/13 3/1/13
f 20/1/14 34/1/14 23/1/14
f 35/1/15 22/1/15 9/1/15
f 47/1/16 10/1/16 43/1/16
f 41/1/17 3/1/17 36/1/17
f 26/1/18 18/1/18 1/1/18
f 28/1/19 26/1/19 27/1/19
f 28/1/20 13/1/20 24/1/20
f 25/1/21 24/1/21 18/1/21
f 33/1/22 29/1/22 32/1/22
f 29/1/23 31/1/23 30/1/23
f 4/1/24 31/1/24 20/1/24
f 17/1/25 32/1/25 2/1/25
f 34/1/26 17/1/26 23/1/26
f 54/1/27 36/1/27 10/1/27
f 51/1/28 18/1/28 40/1/28
f 11/1/29 39/1/29 16/1/29
f 18/1/30 37/1/30 40/1/30
f 21/1/31 38/1/31 41/1/31
f 39/1/32 12/1/32 16/1/32
f 22/1/33 42/1/33 9/1/33
f 20/1/34 43/1/34 4/1/34
f 6/1/35 46/1/35 14/1/35
f 14/1/36 45/1/36 8/1/36
f 8/1/37 47/1/37 20/1/37
f 11/1/38 48/1/38 22/1/38
f 50/1/39 51/1/39 52/1/39
f 52/1/40 40/1/40 35/1/40
f 49/1/41 1/1/41 18/1/41
f 29/1/42 30/1/42 32/1/42
f 55/1/43 53/1/43 54/1/43
f 36/1/44 56/1/44 41/1/44
f 55/1/45 10/1/45 21/1/45
f 56/1/46 21/1/46 41/1/46
f 60/1/47 58/1/47 57/1/47
f 2/1/48 59/1/48 17/1/48
f 48/1/49 57/1/49 42/1/49
f 59/1/50 48/1/50 17/1/50
f 15/1/82 7/1/82 38/1/82
f 44/1/83 6/1/83 17/1/83
f 24/1/84 15/1/84 5/1/84
f 41/1/85 38/1/85 7/1/85
f 23/1/86 14/1/86 8/1/86
f 47/1/87 45/1/87 12/1/87
f 37/1/88 11/1/88 22/1/88
f 16/1/89 12/1/89 45/1/89
f 44/1/90 11/1/90 16/1/90
f 6/1/91 14/1/91 23/1/91
f 7/1/92 15/1/92 24/1/92
f 37/1/93 5/1/93 15/1/93
f 19/1/94 24/1/94 13/1/94
f 20/1/95 31/1/95 34/1/95
f 35/1/96 40/1/96 22/1/96
f 47/1/97 21/1/97 10/1/97
f 41/1/98 19/1/98 3/1/98
f 26/1/99 25/1/99 18/1/99
f 28/1/100 25/1/100 26/1/100
f 28/1/101 27/1/101 13/1/101
f 25/1/102 28/1/102 24/1/102
f 33/1/103 34/1/103 29/1/103
f 29/1/104 34/1/104 31/1/104
f 4/1/105 30/1/105 31/1/105
f 17/1/106 33/1/106 32/1/106
f 34/1/107 33/1/107 17/1/107
f 54/1/108 53/1/108 36/1/108
f 51/1/109 49/1/109 18/1/109
f 11/1/110 37/1/110 39/1/110
f 18/1/111 5/1/111 37/1/111
f 21/1/112 12/1/112 38/1/112
f 39/1/113 38/1/113 12/1/113
f 22/1/114 48/1/114 42/1/114
f 20/1/115 47/1/115 43/1/115
f 6/1/116 44/1/116 46/1/116
f 14/1/117 46/1/117 45/1/117
f 8/1/118 45/1/118 47/1/118
f 11/1/119 44/1/119 48/1/119
f 50/1/120 49/1/120 51/1/120
f 52/1/121 51/1/121 40/1/121
f 49/1/122 50/1/122 1/1/122
f 55/1/123 56/1/123 53/1/123
f 36/1/124 53/1/124 56/1/124
f 55/1/125 54/1/125 10/1/125
f 56/1/126 55/1/126 21/1/126
f 60/1/127 59/1/127 58/1/127
f 2/1/128 58/1/128 59/1/128
f 48/1/129 60/1/129 57/1/129
f 59/1/130 60/1/130 48/1/130
usemtl trunk
f 63/2/51 62/3/51 86/4/51
f 65/5/52 77/6/52 79/7/52
f 66/8/53 61/9/53 63/10/53
f 67/11/54 65/12/54 64/13/54
f 87/14/55 63/15/55 86/16/55
f 68/17/56 69/18/56 71/19/56
f 75/20/57 74/21/57 71/19/57
f 73/22/58 76/23/58 65/12/58
f 74/24/59 77/25/59 76/23/59
f 75/26/60 78/27/60 77/25/60
f 81/28/61 79/29/61 78/27/61
f 85/18/62 83/30/62 81/31/62
f 84/32/63 62/3/63 79/29/63
f 87/14/64 88/18/64 89/14/64
f 85/18/65 90/19/65 88/18/65
f 90/19/66 102/33/66 105/34/66
f 82/19/67 91/35/67 90/19/67
f 94/36/68 91/35/68 93/35/68
f 94/36/69 72/35/69 96/36/69
f 95/37/70 96/36/70 97/37/70
f 95/37/71 92/36/71 94/36/71
f 100/33/72 97/37/72 98/33/72
f 100/33/73 99/38/73 101/38/73
f 100/33/74 103/37/74 95/37/74
f 101/38/75 102/33/75 100/33/75
f 107/34/76 104/38/76 101/38/76
f 107/34/77 106/39/77 105/34/77
f 101/38/78 109/34/78 107/34/78
f 107/34/79 110/39/79 108/39/79
f 108/39/80 70/14/80 87/14/80
f 87/14/81 106/39/81 108/39/81
f 63/2/51 61/40/51 62/3/51
f 79/7/131 62/41/131 61/42/131
f 61/42/131 64/43/131 65/5/131
f 65/5/131 76/44/131 77/6/131
f 77/6/131 78/45/131 79/7/131
f 79/7/52 61/42/52 65/5/52
f 66/8/53 64/13/53 61/9/53
f 64/13/54 66/8/54 67/11/54
f 67/11/54 68/46/54 65/12/54
f 84/47/132 85/18/132 87/14/132
f 87/14/133 70/14/133 69/18/133
f 69/18/134 67/18/134 66/48/134
f 69/18/135 66/48/135 63/15/135
f 86/16/136 84/47/136 87/14/136
f 87/14/137 69/18/137 63/15/137
f 71/19/138 73/31/138 68/17/138
f 68/17/139 67/18/139 69/18/139
f 72/35/140 93/35/140 82/19/140
f 82/19/141 81/31/141 80/49/141
f 82/19/142 80/49/142 75/20/142
f 71/19/140 72/35/140 82/19/140
f 74/21/143 73/31/143 71/19/143
f 71/19/144 82/19/144 75/20/144
f 65/12/58 68/46/58 73/22/58
f 73/22/145 74/24/145 76/23/145
f 74/24/59 75/26/59 77/25/59
f 75/26/60 80/50/60 78/27/60
f 78/27/146 80/50/146 81/28/146
f 81/28/61 83/51/61 79/29/61
f 81/31/147 82/19/147 85/18/147
f 85/18/148 84/47/148 83/30/148
f 79/29/63 83/51/63 84/32/63
f 84/32/63 86/4/63 62/3/63
f 87/14/149 85/18/149 88/18/149
f 85/18/65 82/19/65 90/19/65
f 105/34/66 106/39/66 89/14/66
f 89/14/66 88/18/66 90/19/66
f 90/19/66 91/35/66 92/36/66
f 92/36/66 103/37/66 102/33/66
f 102/33/66 104/38/66 105/34/66
f 105/34/66 89/14/66 90/19/66
f 90/19/66 92/36/66 102/33/66
f 82/19/150 93/35/150 91/35/150
f 94/36/68 92/36/68 91/35/68
f 94/36/69 93/35/69 72/35/69
f 95/37/70 94/36/70 96/36/70
f 95/37/71 103/37/71 92/36/71
f 100/33/72 95/37/72 97/37/72
f 100/33/73 98/33/73 99/38/73
f 100/33/74 102/33/74 103/37/74
f 101/38/75 104/38/75 102/33/75
f 107/34/76 105/34/76 104/38/76
f 107/34/77 108/39/77 106/39/77
f 101/38/78 99/38/78 109/34/78
f 107/34/79 109/34/79 110/39/79
f 108/39/80 110/39/80 70/14/80
f 87/14/81 89/14/81 106/39/81
