# Blender 4.2.2 LTS
# www.blender.org
mtllib trash_can.mtl
o Cube
v 0.684452 0.008400 0.526631
v 0.824356 2.275347 0.777015
v 0.684452 0.008400 -0.698316
v 0.824356 2.275347 -0.948701
v 0.000005 0.008400 -0.698316
v 0.000005 2.275347 -0.948701
v 0.000005 0.008400 0.526631
v 0.000005 2.275347 0.777015
v 0.783949 1.620597 -0.876383
v 0.783949 1.620597 0.704698
v 0.000005 1.620597 0.704698
v 0.000005 1.620597 -0.876383
v 0.000005 2.215040 -1.108124
v 0.946419 2.211000 -1.064191
v 0.946419 2.211000 0.892505
v 0.000005 2.215040 0.936438
v 0.914237 1.557583 -0.984668
v 0.914237 1.557583 0.812982
v 0.000005 1.560290 0.864121
v 0.000005 1.560290 -1.035807
v 0.000005 2.414202 -0.948701
v 0.824356 2.414202 -0.948701
v 0.824356 2.414202 0.777015
v 0.000005 2.414202 0.777015
v -0.684443 0.008400 0.526631
v -0.824347 2.275347 0.777015
v -0.684443 0.008400 -0.698316
v -0.824347 2.275347 -0.948701
v -0.783939 1.620597 -0.876383
v -0.783939 1.620597 0.704698
v -0.946410 2.211000 -1.064191
v -0.946410 2.211000 0.892505
v -0.914228 1.557583 -0.984668
v -0.914228 1.557583 0.812982
v -0.824347 2.414202 -0.948701
v -0.824347 2.414202 0.777015
v 0.412180 2.275347 -0.948701
v 0.342228 0.008400 0.526631
v 0.342228 0.008400 -0.698316
v 0.412180 2.275347 0.777015
v 0.412180 2.414202 -0.948701
v 0.391977 1.620597 0.704698
v 0.391977 1.620597 -0.876383
v 0.473211 2.213020 -1.086157
v 0.473211 2.213020 0.914472
v 0.457120 1.558937 0.838552
v 0.457120 1.558937 -1.010237
v 0.412180 2.414202 0.777015
v -0.412171 2.275347 -0.948701
v -0.342219 0.008400 0.526631
v -0.342219 0.008400 -0.698316
v -0.412171 2.275347 0.777015
v -0.412171 2.414202 -0.948701
v -0.391967 1.620597 0.704698
v -0.391967 1.620597 -0.876383
v -0.473201 2.213020 -1.086157
v -0.473201 2.213020 0.914472
v -0.457110 1.558937 0.838552
v -0.457110 1.558937 -1.010237
v -0.412171 2.414202 0.777015
v 0.768206 1.253859 -0.848212
v 0.735042 0.939816 -0.788856
v 0.768206 1.253859 0.676526
v 0.735042 0.939816 0.617171
v 0.000005 1.253859 0.676526
v 0.000005 0.939816 0.617171
v 0.000005 1.253859 -0.848212
v 0.000005 0.939816 -0.788856
v -0.768197 1.253859 -0.848212
v -0.735033 0.939816 -0.788856
v -0.768197 1.253859 0.676526
v -0.735033 0.939816 0.617171
v 0.384107 1.253859 -0.848212
v 0.367522 0.939816 -0.788856
v 0.384107 1.253859 0.676526
v 0.367522 0.939816 0.617171
v -0.367513 0.939816 -0.788856
v -0.384097 1.253859 -0.848212
v -0.367513 0.939816 0.617171
v -0.384097 1.253859 0.676526
v 0.000005 1.339195 0.314988
v 0.000005 1.025152 0.255632
v 0.384107 1.339195 0.314988
v 0.367522 1.025152 0.255632
v -0.367513 1.025152 0.255632
v -0.384097 1.339195 0.314988
v -0.367513 0.965481 0.508438
v -0.384097 1.279524 0.567794
v 0.000005 1.279524 0.567794
v 0.384107 1.279524 0.567794
v 0.367522 0.965481 0.508438
v 0.000005 0.965481 0.508438
v -0.367513 0.643231 0.447532
v -0.367513 0.702903 0.194725
v 0.000005 0.702903 0.194725
v 0.367522 0.702903 0.194725
v 0.367522 0.643231 0.447532
v 0.000005 0.643231 0.447532
vn -0.0255 -0.9126 0.4080
vn -0.0000 0.9107 -0.4130
vn -0.4354 -0.9002 -0.0000
vn -0.0000 -0.0766 0.9971
vn 0.9991 -0.0429 -0.0000
vn -0.0000 -0.0766 -0.9971
vn 0.0551 -0.1165 -0.9917
vn 0.9988 -0.0492 -0.0000
vn 0.0552 -0.1096 0.9924
vn 0.0227 0.9143 0.4045
vn -0.0000 -0.9083 -0.4184
vn 0.4663 0.8846 -0.0000
vn 1.0000 -0.0000 -0.0000
vn -0.0000 -0.9353 0.3538
vn 0.4354 -0.9002 -0.0000
vn -0.9991 -0.0429 -0.0000
vn -0.0551 -0.1165 -0.9917
vn -0.9988 -0.0492 -0.0000
vn -0.0456 -0.1163 0.9922
vn -0.0000 0.9353 0.3538
vn -0.4663 0.8846 -0.0000
vn -1.0000 -0.0000 -0.0000
vn -0.0000 -0.9353 -0.3538
vn 0.0254 0.8845 0.4659
vn 0.0551 -0.1165 0.9917
vn 0.0552 -0.1096 -0.9924
vn -0.0000 0.9353 -0.3538
vn -0.0292 -0.8788 0.4762
vn -0.0000 -0.0000 -1.0000
vn -0.0000 0.9107 0.4130
vn -0.0455 -0.1229 0.9914
vn -0.0552 -0.1096 -0.9924
vn -0.0000 -0.0000 1.0000
vn -0.0000 -0.9083 0.4184
vn -0.0000 -0.0968 0.9953
vn -0.0000 -0.1857 0.9826
vn -0.0000 -0.0968 -0.9953
vn -0.0000 -0.1857 -0.9826
vn -0.9985 -0.0542 -0.0000
vn -0.9945 -0.1050 -0.0000
vn -0.0000 -0.9733 -0.2297
vn 0.9985 -0.0542 -0.0000
vn 0.9945 -0.1050 -0.0000
vn 0.9987 0.0505 0.0119
vn -0.9987 0.0505 0.0119
vn -0.0000 0.1857 -0.9826
vn -0.0000 0.9733 0.2297
vn -0.0000 1.0000 -0.0000
vn 0.0254 0.8845 -0.4659
vn 0.0455 -0.1229 -0.9914
vn 0.0456 -0.1163 0.9922
vn -0.0292 -0.8788 -0.4762
vn 0.0255 -0.9126 0.4080
vn -0.0254 0.8845 -0.4659
vn -0.0455 -0.1229 -0.9914
vn -0.0552 -0.1096 0.9924
vn -0.0227 0.9143 0.4045
vn 0.0292 -0.8788 -0.4762
vn -0.0255 -0.9126 -0.4080
vn 0.0455 -0.1229 0.9914
vn 0.0456 -0.1163 -0.9922
vn 0.0227 0.9143 -0.4045
vn 0.0255 -0.9126 -0.4080
vn -0.0254 0.8845 0.4659
vn -0.0551 -0.1165 0.9917
vn -0.0456 -0.1163 -0.9922
vn -0.0227 0.9143 -0.4045
vn 0.0292 -0.8788 0.4762
vt 0.552794 0.437500
vt 0.552794 0.375000
vt 0.625000 0.500000
vt 0.687500 0.500000
vt 0.552794 0.500000
vt 0.552794 0.750000
vt 0.524666 0.812500
vt 0.552794 0.875000
vt 0.524666 0.875000
vt 0.524666 0.750000
vt 0.524666 0.500000
vt 0.524666 0.437500
vt 0.625000 0.437500
vt 0.625000 0.750000
vt 0.552794 0.812500
vt 0.625000 0.875000
vt 0.687500 0.750000
vt 0.750000 0.750000
vt 0.524666 0.750000
vt 0.524666 0.500000
vt 0.625000 0.812500
vt 0.625000 0.375000
vt 0.524666 0.375000
vt 0.750000 0.500000
vt 0.375000 0.750000
vt 0.465401 0.812500
vt 0.465401 0.750000
vt 0.375000 0.437500
vt 0.465401 0.375000
vt 0.375000 0.375000
vt 0.465401 0.437500
vt 0.465401 0.812500
vt 0.375000 0.812500
vt 0.465401 0.750000
vt 0.375000 0.500000
vt 0.465401 0.500000
vt 0.465401 0.875000
vt 0.524666 0.875000
vt 0.524666 0.812500
vt 0.375000 0.875000
s 0
usemtl trash
f 43/1/1 20/2/1 47/1/1
f 4/3/2 44/4/2 37/4/2
f 9/5/3 18/6/3 10/6/3
f 75/7/4 11/8/4 65/9/4
f 9/5/5 63/10/5 61/11/5
f 43/1/6 61/11/6 73/12/6
f 44/13/7 17/5/7 47/1/7
f 17/5/8 15/14/8 18/6/8
f 46/15/9 16/16/9 19/8/9
f 40/17/10 16/18/10 45/17/10
f 10/6/11 46/15/11 42/15/11
f 2/14/12 14/3/12 4/3/12
f 4/3/13 23/14/13 2/14/13
f 55/1/14 20/2/14 12/2/14
f 56/4/2 28/3/2 49/4/2
f 30/6/15 33/5/15 29/5/15
f 80/7/4 11/8/4 54/15/4
f 71/19/16 29/5/16 69/20/16
f 69/20/6 55/1/6 78/12/6
f 33/5/17 56/13/17 59/1/17
f 34/6/18 31/3/18 33/5/18
f 58/15/19 16/16/19 57/21/19
f 52/17/20 16/18/20 8/18/20
f 58/15/11 30/6/11 54/15/11
f 31/3/21 26/14/21 28/3/21
f 36/14/22 28/3/22 26/14/22
f 42/15/23 19/8/23 11/8/23
f 2/14/24 45/17/24 15/14/24
f 18/6/25 45/21/25 46/15/25
f 13/22/26 47/1/26 20/2/26
f 12/2/6 73/12/6 67/23/6
f 63/10/4 42/15/4 75/7/4
f 37/4/27 13/24/27 6/24/27
f 9/5/28 47/1/28 17/5/28
f 37/4/29 21/24/29 41/4/29
f 19/8/23 54/15/23 11/8/23
f 26/14/30 57/17/30 52/17/30
f 34/6/31 57/21/31 32/14/31
f 59/1/32 13/22/32 20/2/32
f 78/12/6 12/2/6 67/23/6
f 71/19/4 54/15/4 30/6/4
f 24/18/33 60/17/33 52/17/33
f 13/24/27 49/4/27 6/24/27
f 29/5/34 59/1/34 55/1/34
f 25/25/35 79/26/35 72/27/35
f 72/27/36 80/7/36 71/19/36
f 51/28/37 68/29/37 5/30/37
f 77/31/38 67/23/38 68/29/38
f 1/25/35 76/32/35 38/33/35
f 64/34/36 75/7/36 76/32/36
f 68/29/37 39/28/37 5/30/37
f 67/23/38 74/31/38 68/29/38
f 27/35/37 77/31/37 51/28/37
f 70/36/38 78/12/38 77/31/38
f 25/25/39 70/36/39 27/35/39
f 70/36/40 71/19/40 69/20/40
f 50/33/35 66/37/35 79/26/35
f 89/38/41 83/7/41 90/39/41
f 74/31/37 3/35/37 39/28/37
f 73/12/38 62/36/38 74/31/38
f 62/36/42 1/25/42 3/35/42
f 62/36/43 63/10/43 64/34/43
f 38/33/35 66/37/35 7/40/35
f 88/7/44 85/26/44 86/7/44
f 85/26/36 81/9/36 86/7/36
f 84/32/36 81/9/36 82/37/36
f 90/39/45 84/32/45 91/32/45
f 88/7/41 81/9/41 89/38/41
f 87/32/13 94/26/13 85/26/13
f 91/32/46 98/37/46 92/37/46
f 66/37/47 87/32/47 79/26/47
f 76/32/47 92/37/47 66/37/47
f 80/7/41 89/38/41 65/9/41
f 75/7/45 91/32/45 76/32/45
f 80/7/44 87/32/44 88/7/44
f 65/9/41 90/39/41 75/7/41
f 97/32/47 95/37/47 98/37/47
f 98/37/47 94/26/47 93/32/47
f 92/37/46 93/32/46 87/32/46
f 82/37/36 96/32/36 84/32/36
f 91/32/22 96/32/22 97/32/22
f 85/26/36 95/37/36 82/37/36
f 41/4/48 24/18/48 48/17/48
f 43/1/14 12/2/14 20/2/14
f 4/3/49 14/3/49 44/4/49
f 9/5/3 17/5/3 18/6/3
f 75/7/4 42/15/4 11/8/4
f 9/5/5 10/6/5 63/10/5
f 43/1/6 9/5/6 61/11/6
f 44/13/50 14/3/50 17/5/50
f 17/5/8 14/3/8 15/14/8
f 46/15/51 45/21/51 16/16/51
f 40/17/20 8/18/20 16/18/20
f 10/6/52 18/6/52 46/15/52
f 2/14/12 15/14/12 14/3/12
f 4/3/13 22/3/13 23/14/13
f 55/1/53 59/1/53 20/2/53
f 56/4/54 31/3/54 28/3/54
f 30/6/15 34/6/15 33/5/15
f 80/7/4 65/9/4 11/8/4
f 71/19/16 30/6/16 29/5/16
f 69/20/6 29/5/6 55/1/6
f 33/5/55 31/3/55 56/13/55
f 34/6/18 32/14/18 31/3/18
f 58/15/56 19/8/56 16/16/56
f 52/17/57 57/17/57 16/18/57
f 58/15/58 34/6/58 30/6/58
f 31/3/21 32/14/21 26/14/21
f 36/14/22 35/3/22 28/3/22
f 42/15/59 46/15/59 19/8/59
f 2/14/30 40/17/30 45/17/30
f 18/6/60 15/14/60 45/21/60
f 13/22/61 44/13/61 47/1/61
f 12/2/6 43/1/6 73/12/6
f 63/10/4 10/6/4 42/15/4
f 37/4/62 44/4/62 13/24/62
f 9/5/34 43/1/34 47/1/34
f 49/4/29 28/3/29 35/3/29
f 49/4/29 35/3/29 53/4/29
f 6/24/29 49/4/29 53/4/29
f 6/24/29 53/4/29 21/24/29
f 22/3/29 4/3/29 37/4/29
f 37/4/29 6/24/29 21/24/29
f 41/4/29 22/3/29 37/4/29
f 19/8/63 58/15/63 54/15/63
f 26/14/64 32/14/64 57/17/64
f 34/6/65 58/15/65 57/21/65
f 59/1/66 56/13/66 13/22/66
f 78/12/6 55/1/6 12/2/6
f 71/19/4 80/7/4 54/15/4
f 40/17/33 2/14/33 23/14/33
f 40/17/33 23/14/33 48/17/33
f 8/18/33 40/17/33 48/17/33
f 8/18/33 48/17/33 24/18/33
f 36/14/33 26/14/33 52/17/33
f 52/17/33 8/18/33 24/18/33
f 60/17/33 36/14/33 52/17/33
f 13/24/67 56/4/67 49/4/67
f 29/5/68 33/5/68 59/1/68
f 25/25/35 50/33/35 79/26/35
f 72/27/36 79/26/36 80/7/36
f 51/28/37 77/31/37 68/29/37
f 77/31/38 78/12/38 67/23/38
f 1/25/35 64/34/35 76/32/35
f 64/34/36 63/10/36 75/7/36
f 68/29/37 74/31/37 39/28/37
f 67/23/38 73/12/38 74/31/38
f 27/35/37 70/36/37 77/31/37
f 70/36/38 69/20/38 78/12/38
f 25/25/39 72/27/39 70/36/39
f 70/36/40 72/27/40 71/19/40
f 50/33/35 7/40/35 66/37/35
f 89/38/41 81/9/41 83/7/41
f 74/31/37 62/36/37 3/35/37
f 73/12/38 61/11/38 62/36/38
f 62/36/42 64/34/42 1/25/42
f 62/36/43 61/11/43 63/10/43
f 38/33/35 76/32/35 66/37/35
f 88/7/44 87/32/44 85/26/44
f 85/26/36 82/37/36 81/9/36
f 84/32/36 83/7/36 81/9/36
f 90/39/45 83/7/45 84/32/45
f 88/7/41 86/7/41 81/9/41
f 87/32/13 93/32/13 94/26/13
f 91/32/46 97/32/46 98/37/46
f 66/37/47 92/37/47 87/32/47
f 76/32/47 91/32/47 92/37/47
f 80/7/41 88/7/41 89/38/41
f 75/7/45 90/39/45 91/32/45
f 80/7/44 79/26/44 87/32/44
f 65/9/41 89/38/41 90/39/41
f 97/32/47 96/32/47 95/37/47
f 98/37/47 95/37/47 94/26/47
f 92/37/46 98/37/46 93/32/46
f 82/37/36 95/37/36 96/32/36
f 91/32/22 84/32/22 96/32/22
f 85/26/36 94/26/36 95/37/36
f 53/4/48 35/3/48 36/14/48
f 53/4/48 36/14/48 60/17/48
f 21/24/48 53/4/48 60/17/48
f 21/24/48 60/17/48 24/18/48
f 23/14/48 22/3/48 41/4/48
f 41/4/48 21/24/48 24/18/48
f 48/17/48 23/14/48 41/4/48
